<?xml version="1.0" encoding="UTF-8"?>
<!-- Generator: Adobe Illustrator 15.0.2, SVG Export Plug-In . SVG Version: 6.00 Build 0)  -->
<!DOCTYPE svg PUBLIC "-//W3C//DTD SVG 1.1//EN" "http://www.w3.org/Graphics/SVG/1.1/DTD/svg11.dtd">
<svg version="1.1" id="Layer_1" xmlns="http://www.w3.org/2000/svg" xmlns:xlink="http://www.w3.org/1999/xlink" x="0px" y="0px" width="511.998px" height="511.981px" viewBox="-0.329 0.001 511.998 511.981" enable-background="new -0.329 0.001 511.998 511.981" xml:space="preserve">
<path d="M325.287,256L497.246,84.041c19.23-19.222,19.23-50.392,0-69.622c-19.23-19.222-50.415-19.222-69.613,0L255.666,186.37  L83.707,14.411c-19.214-19.214-50.392-19.214-69.613,0c-19.23,19.238-19.23,50.408,0,69.622l171.959,171.959L14.094,427.946  c-19.23,19.23-19.23,50.399,0,69.614c9.615,9.614,22.211,14.422,34.807,14.422s25.199-4.808,34.807-14.422l171.959-171.951  L427.625,497.56c9.606,9.614,22.211,14.422,34.807,14.422s25.199-4.808,34.807-14.422c19.23-19.23,19.23-50.399,0-69.614  L325.287,256z"/>
</svg>